static_01
version=1
nRows=13
nColumns=46
inDegrees=yes
endheader
time	ground_force3_vx	ground_force3_vy	ground_force3_vz	ground_force3_px	ground_force3_py	ground_force3_pz	ground_torque3_x	ground_torque3_y	ground_torque3_z	ground_force5_vx	ground_force5_vy	ground_force5_vz	ground_force5_px	ground_force5_py	ground_force5_pz	ground_torque5_x	ground_torque5_y	ground_torque5_z	ground_force4_vx	ground_force4_vy	ground_force4_vz	ground_force4_px	ground_force4_py	ground_force4_pz	ground_torque4_x	ground_torque4_y	ground_torque4_z	ground_force1_vx	ground_force1_vy	ground_force1_vz	ground_force1_px	ground_force1_py	ground_force1_pz	ground_torque1_x	ground_torque1_y	ground_torque1_z	ground_force2_vx	ground_force2_vy	ground_force2_vz	ground_force2_px	ground_force2_py	ground_force2_pz	ground_torque2_x	ground_torque2_y	ground_torque2_z
1.242500	-0.000000	-0.000000	0.000000	0.200000	0.000000	-0.300000	0.000000	0.000000	-0.000000	0.857897	502.554871	64.268753	0.211086	0.000000	-1.397469	0.000008	-1.865415	0.000008	-1.382272	459.158722	-62.118507	0.218765	0.000000	-0.968234	0.000033	1.609714	0.000001	-0.000000	-0.000000	0.000000	0.200000	0.000000	0.920000	0.000000	0.000000	-0.000000	-0.000000	-0.000000	0.000000	0.200000	0.000000	0.320000	0.000000	0.000000	-0.000000	
1.243000	-0.000000	-0.000000	0.000000	0.200000	0.000000	-0.300000	0.000000	0.000000	-0.000000	0.856878	503.670319	64.268753	0.211160	0.000000	-1.397134	0.000000	-1.741180	0.000003	-1.462021	459.162598	-62.602150	0.218425	0.000000	-0.968292	0.000015	1.631987	0.000001	-0.000000	-0.000000	0.000000	0.200000	0.000000	0.920000	0.000000	0.000000	-0.000000	-0.000000	-0.000000	0.000000	0.200000	0.000000	0.320000	0.000000	0.000000	-0.000000	
1.243500	-0.000000	-0.000000	0.000000	0.200000	0.000000	-0.300000	0.000000	0.000000	-0.000000	0.696175	503.671326	64.349014	0.210941	0.000000	-1.397376	0.000052	-1.786451	0.000002	-1.462021	459.804077	-62.440594	0.218320	0.000000	-0.968181	0.000035	1.641669	0.000005	-0.000000	-0.000000	0.000000	0.200000	0.000000	0.920000	0.000000	0.000000	-0.000000	-0.000000	-0.000000	0.000000	0.200000	0.000000	0.320000	0.000000	0.000000	-0.000000	
1.244000	-0.000000	-0.000000	0.000000	0.200000	0.000000	-0.300000	0.000000	0.000000	-0.000000	0.535471	503.672302	64.429283	0.210721	0.000000	-1.397617	-0.000002	-1.831610	0.000008	-1.462021	460.445526	-62.279037	0.218215	0.000000	-0.968070	0.000025	1.651403	0.000009	-0.000000	-0.000000	0.000000	0.200000	0.000000	0.920000	0.000000	0.000000	-0.000000	-0.000000	-0.000000	0.000000	0.200000	0.000000	0.320000	0.000000	0.000000	-0.000000	
1.244500	-0.000000	-0.000000	0.000000	0.200000	0.000000	-0.300000	0.000000	0.000000	-0.000000	0.856878	503.511871	64.831299	0.210654	0.000000	-1.397861	0.000020	-1.705576	0.000002	-1.302523	459.323730	-62.198261	0.218484	0.000000	-0.968020	0.000031	1.568521	0.000006	-0.000000	-0.000000	0.000000	0.200000	0.000000	0.920000	0.000000	0.000000	-0.000000	-0.000000	-0.000000	0.000000	0.200000	0.000000	0.320000	0.000000	0.000000	-0.000000	
1.245000	-0.000000	-0.000000	0.000000	0.200000	0.000000	-0.300000	0.000000	0.000000	-0.000000	1.178285	503.351440	65.233307	0.210586	0.000000	-1.398106	0.000023	-1.579641	0.000003	-1.143024	458.201904	-62.117485	0.218755	0.000000	-0.967971	0.000012	1.485692	-0.000000	-0.000000	-0.000000	0.000000	0.200000	0.000000	0.920000	0.000000	0.000000	-0.000000	-0.000000	-0.000000	0.000000	0.200000	0.000000	0.320000	0.000000	0.000000	-0.000000	
1.245500	-0.000000	-0.000000	0.000000	0.200000	0.000000	-0.300000	0.000000	0.000000	-0.000000	1.420359	502.077393	65.153038	0.210766	0.000000	-1.397720	0.000091	-1.636246	0.000003	-0.899144	459.481476	-61.876686	0.218644	0.000000	-0.968028	0.000034	1.477648	0.000003	-0.000000	-0.000000	0.000000	0.200000	0.000000	0.920000	0.000000	0.000000	-0.000000	-0.000000	-0.000000	0.000000	0.200000	0.000000	0.320000	0.000000	0.000000	-0.000000	
1.246000	-0.000000	-0.000000	0.000000	0.200000	0.000000	-0.300000	0.000000	0.000000	-0.000000	1.662433	500.803314	65.072769	0.210947	0.000000	-1.397333	0.000010	-1.692691	0.000004	-0.655263	460.761047	-61.635883	0.218533	0.000000	-0.968084	0.000039	1.469667	0.000002	-0.000000	-0.000000	0.000000	0.200000	0.000000	0.920000	0.000000	0.000000	-0.000000	-0.000000	-0.000000	0.000000	0.200000	0.000000	0.320000	0.000000	0.000000	-0.000000	
1.246500	-0.000000	-0.000000	0.000000	0.200000	0.000000	-0.300000	0.000000	0.000000	-0.000000	1.501220	501.920776	64.671097	0.211089	0.000000	-1.397550	0.000029	-1.672508	-0.000001	-0.816306	458.359314	-61.717171	0.218651	0.000000	-0.968250	0.000008	1.492747	0.000004	-0.000000	-0.000000	0.000000	0.200000	0.000000	0.920000	0.000000	0.000000	-0.000000	-0.000000	-0.000000	0.000000	0.200000	0.000000	0.320000	0.000000	0.000000	-0.000000	
1.247000	-0.000000	-0.000000	0.000000	0.200000	0.000000	-0.300000	0.000000	0.000000	-0.000000	1.340007	503.038208	64.269424	0.211231	0.000000	-1.397765	-0.000006	-1.652102	0.000009	-0.977349	455.957611	-61.798458	0.218770	0.000000	-0.968418	0.000017	1.515978	0.000008	-0.000000	-0.000000	0.000000	0.200000	0.000000	0.920000	0.000000	0.000000	-0.000000	-0.000000	-0.000000	0.000000	0.200000	0.000000	0.320000	0.000000	0.000000	-0.000000	
1.247500	-0.000000	-0.000000	0.000000	0.200000	0.000000	-0.300000	0.000000	0.000000	-0.000000	0.776781	503.832764	64.510223	0.210922	0.000000	-1.397966	0.000039	-1.737457	0.000004	-0.815534	457.879456	-61.879234	0.218617	0.000000	-0.968680	-0.000001	1.487597	0.000003	-0.000000	-0.000000	0.000000	0.200000	0.000000	0.920000	0.000000	0.000000	-0.000000	-0.000000	-0.000000	0.000000	0.200000	0.000000	0.320000	0.000000	0.000000	-0.000000	
1.248000	-0.000000	-0.000000	0.000000	0.200000	0.000000	-0.300000	0.000000	0.000000	-0.000000	0.213555	504.627319	64.751030	0.210615	0.000000	-1.398167	0.000042	-1.822501	0.000004	-0.653719	459.801331	-61.960014	0.218464	0.000000	-0.968940	0.000003	1.459186	0.000010	-0.000000	-0.000000	0.000000	0.200000	0.000000	0.920000	0.000000	0.000000	-0.000000	-0.000000	-0.000000	0.000000	0.200000	0.000000	0.320000	0.000000	0.000000	-0.000000	
1.248500	-0.000000	-0.000000	0.000000	0.200000	0.000000	-0.300000	0.000000	0.000000	-0.000000	0.857133	503.191132	64.510223	0.210525	0.000000	-1.398078	0.000061	-1.687672	0.000009	-0.896827	459.641907	-61.960526	0.218492	0.000000	-0.968760	0.000036	1.441752	0.000003	-0.000000	-0.000000	0.000000	0.200000	0.000000	0.920000	0.000000	0.000000	-0.000000	-0.000000	-0.000000	0.000000	0.200000	0.000000	0.320000	0.000000	0.000000	-0.000000	
